ply
format ascii 1.0
comment Exported by Aspose.3D 25.3.0
element vertex 140
property float x
property float y
property float z
property float nx
property float ny
property float nz
element face 280
property list uchar int vertex_index
end_header
2.417161464691162 0 -50.742462158203125 -0.03386398404836655 0.5714285714285714 0.425501457282475
7.671431064605713 0 -56.63277816772461 0.08165114372968674 0.5 -0.49147480726242065
11.976553916931152 0 -49.36802673339844 -0.1327418213089307 0.5 0.4799705147743225
17.660322189331055 0 -54.35287857055664 0.1680951838692029 0.5 -0.4689972400665283
21.10308265686035 0 -46.20930480957031 -0.22117799520492554 0.5 0.4461752672990163
27.081594467163086 0 -50.32603454589844 0.24913650751113892 0.5 -0.4314457178115845
29.46689224243164 0 -41.38045883178711 -0.30162020524342853 0.5 0.3962541123231252
35.632442474365234 0 -44.68166732788086 0.3221703767776489 0.5 -0.380027174949646
36.765689849853516 0 -35.05601501464844 -0.371161142985026 0.5 0.33201127250989276
43.03803253173828 0 -37.601200103759766 0.3848494390646616 0.5 -0.3163942495981852
42.735679626464844 0 -27.464553833007812 -0.427287350098292 0.5 0.2557686368624369
49.06034851074219 0 -29.312192916870117 0.4351591169834137 0.5 -0.24259214599927265
47.16109085083008 0 -18.88045310974121 -0.46797026197115577 0.5 0.17028185228506723
53.505821228027344 0 -20.081071853637695 0.47148242592811584 0.5 -0.16099294026692706
49.88197708129883 0 -9.61396312713623 -0.4917394717534383 0.5 0.07864077885945638
56.2315788269043 0 -10.204526901245117 0.49265190958976746 0.5 -0.07421918958425522
50.79999923706055 0 3.1106027143987507E-15 -0.4977359473705292 0.5 -0.015842693547407784
57.14999771118164 0 3.4994281066381538E-15 0.49798715114593506 0.5 0.014939850817124048
49.88197708129883 0 9.61396312713623 -0.4857429961363474 0.5 -0.10975347707668939
56.2315788269043 0 10.204526901245117 0.48731666803359985 0.5 0.10361882671713829
47.16109085083008 0 18.88045310974121 -0.456194003423055 0.5 -0.19969752927621204
53.505821228027344 0 20.081071853637695 0.46098342537879944 0.5 0.1889674166838328
42.735679626464844 0 27.464553833007812 -0.4101569553216298 0.5 -0.28242406745751697
49.06034851074219 0 29.312192916870117 0.41983380913734436 0.5 0.26824239889780677
36.765689849853516 0 35.05601501464844 -0.3492957254250844 0.5 -0.3549430469671885
43.03803253173828 0 37.601200103759766 0.3651903768380483 0.5 0.3388958474000295
29.46689224243164 0 41.38045883178711 -0.27581010262171424 0.5 -0.4146334032217661
35.632442474365234 0 44.68166732788086 0.2988094389438629 0.5 0.3986569046974182
21.10308265686035 0 46.20930480957031 -0.19235599040985107 0.5 -0.4593378404776255
27.081594467163086 0 50.32603454589844 0.22282451391220093 0.5 0.4456048011779785
11.976553916931152 0 49.36802673339844 -0.10194965700308481 0.5 -0.4874406158924103
17.660322189331055 0 54.35287857055664 0.13967784742514291 0.5 0.4782305955886841
2.417161464691162 0 50.742462158203125 -0.0067358314990997314 0.5714285714285714 -0.42679372855595177
7.671431064605713 0 56.63277816772461 0.062450131773948675 0.4 0.5945827960968018
-2.5640251636505127 0 57.09245300292969 -0.037267001966635384 0.5 0.49681542317072547
-7.229593753814697 0 50.282928466796875 0.08651661748687425 0.5 -0.4904150863488515
-12.717070579528809 0 55.71712875366211 -0.1253778636455536 0.5 0.48217713832855225
-16.61505126953125 0 48.00604248046875 0.17776480813821155 0.5 -0.4651792546113332
-22.461380004882812 0 52.5510139465332 -0.20945908625920612 0.5 0.45204123854637146
-25.399999618530273 0 43.99409103393555 0.26258817811806995 0.5 -0.4231306115786234
-31.483762741088867 0 47.69586181640625 -0.2868080486853917 0.5 0.40737640857696533
-33.26692581176758 0 38.3920783996582 0.33792080481847125 0.5 -0.3657890260219574
-39.494232177734375 0 41.30772399902344 -0.35493876536687213 0.5 0.3496181766192118
-39.93149948120117 0 31.402475357055664 0.4010402162869771 0.5 -0.29522672295570374
-46.235321044921875 0 33.59192657470703 -0.4116615255673726 0.5 0.28062284986178077
-45.15283966064453 0 23.27790641784668 0.4496649205684662 0.5 -0.2139942745367686
-51.49037170410156 0 24.79645538330078 -0.45515310764312744 0.5 0.20260809858640033
-48.74224090576172 0 14.312013626098633 0.4820375343163808 0.5 -0.12502753734588623
-55.090476989746094 0 15.20400619506836 -0.4840156535307566 0.5 0.11808151503403981
-50.56997299194336 0 4.8288469314575195 0.496610552072525 0.5 -0.04740247254570325
-56.9199333190918 0 5.122886657714844 -0.3965845227241516 0.6000000000000001 0.04468430131673813
-50.79999923706055 0 2.177421857727478E-14 0.4994336664676666 0.5 0.007930290574828783
-57.14999771118164 0 1.0498284743430935E-14 -0.49949654936790466 0.5 0.007477386544148127
-50.56997299194336 0 -4.8288469314575195 0.4937874376773834 0.5 0.07101407336692014
-56.9199333190918 0 -5.122886657714844 -0.5665493181773594 0.42857142857142855 -0.06383471616676875
-48.74224090576172 0 -14.312013626098633 0.4731107453505198 0.5 0.1554294005036354
-55.090476989746094 0 -15.20400619506836 -0.4760665496190389 0.5 -0.14688443640867868
-45.15283966064453 0 -23.27790641784668 0.43514588475227356 0.5 0.2421572854121526
-51.49037170410156 0 -24.79645538330078 -0.4421887695789337 0.5 -0.22952883938948312
-39.93149948120117 0 -31.402475357055664 0.3814535836378733 0.5 0.32013314962387085
-46.235321044921875 0 -33.59192657470703 -0.39409861962000525 0.5 -0.30479611953099567
-33.26692581176758 0 -38.3920783996582 0.313974658648173 0.5 0.38653847575187683
-39.494232177734375 0 -41.30772399902344 -0.3333418170611063 0.5 -0.3702669640382131
-25.399999618530273 0 -43.99409103393555 0.23514784375826517 0.5 0.4389732976754506
-31.483762741088867 0 -47.69586181640625 -0.2618712286154429 0.5 -0.4238370656967163
-16.61505126953125 0 -48.00604248046875 0.14782210687796274 0.5 0.47554252545038855
-22.461380004882812 0 -52.5510139465332 -0.18198376397291818 0.5 -0.46378475427627563
-7.229593753814697 0 -50.282928466796875 0.05515382935603459 0.5 0.49492437640825904
-12.717070579528809 0 -55.71712875366211 -0.09624728560447693 0.5 -0.4888260066509247
-2.5640251636505127 0 -57.09245300292969 -0.008900755643844604 0.4 -0.5977871656417847
2.417161464691162 -301.625 -50.742462158203125 -0.0067358314990997314 -0.5714285714285714 0.42679372855595177
-2.5640251636505127 -301.625 -57.09245300292969 -0.037267001966635384 -0.5 -0.49681542317072547
-7.229593753814697 -301.625 -50.282928466796875 0.08651661748687425 -0.5 0.4904150863488515
-12.717070579528809 -301.625 -55.71712875366211 -0.1253778636455536 -0.5 -0.48217713832855225
-16.61505126953125 -301.625 -48.00604248046875 0.17776480813821155 -0.5 0.4651792546113332
-22.461380004882812 -301.625 -52.5510139465332 -0.20945908625920612 -0.5 -0.45204123854637146
-25.399999618530273 -301.625 -43.99409103393555 0.26258817811806995 -0.5 0.4231306115786234
-31.483762741088867 -301.625 -47.69586181640625 -0.2868080486853917 -0.5 -0.40737640857696533
-33.26692581176758 -301.625 -38.3920783996582 0.33792080481847125 -0.5 0.3657890260219574
-39.494232177734375 -301.625 -41.30772399902344 -0.35493876536687213 -0.5 -0.3496181766192118
-39.93149948120117 -301.625 -31.402475357055664 0.4010402162869771 -0.5 0.29522672295570374
-46.235321044921875 -301.625 -33.59192657470703 -0.4116615255673726 -0.5 -0.28062284986178077
-45.15283966064453 -301.625 -23.27790641784668 0.4496649205684662 -0.5 0.2139942745367686
-51.49037170410156 -301.625 -24.79645538330078 -0.45515310764312744 -0.5 -0.20260809858640033
-48.74224090576172 -301.625 -14.312013626098633 0.4820375343163808 -0.5 0.12502753734588623
-55.090476989746094 -301.625 -15.20400619506836 -0.4840156535307566 -0.5 -0.11808151503403981
-50.56997299194336 -301.625 -4.8288469314575195 0.496610552072525 -0.5 0.04740247254570325
-56.9199333190918 -301.625 -5.122886657714844 -0.3965845227241516 -0.6000000000000001 -0.04468430131673813
-50.79999923706055 -301.625 9.331808566712726E-15 0.4994336664676666 -0.5 -0.007930290574828783
-57.14999771118164 -301.625 2.4495998017016497E-14 -0.49949654936790466 -0.5 -0.007477386544148127
-50.56997299194336 -301.625 4.8288469314575195 0.4937874376773834 -0.5 -0.07101407336692014
-56.9199333190918 -301.625 5.122886657714844 -0.5665493181773594 -0.42857142857142855 0.06383471616676875
-48.74224090576172 -301.625 14.312013626098633 0.4731107453505198 -0.5 -0.1554294005036354
-55.090476989746094 -301.625 15.20400619506836 -0.4760665496190389 -0.5 0.14688443640867868
-45.15283966064453 -301.625 23.27790641784668 0.43514588475227356 -0.5 -0.2421572854121526
-51.49037170410156 -301.625 24.79645538330078 -0.4421887695789337 -0.5 0.22952883938948312
-39.93149948120117 -301.625 31.402475357055664 0.3814535836378733 -0.5 -0.32013314962387085
-46.235321044921875 -301.625 33.59192657470703 -0.39409861962000525 -0.5 0.30479611953099567
-33.26692581176758 -301.625 38.3920783996582 0.313974658648173 -0.5 -0.38653847575187683
-39.494232177734375 -301.625 41.30772399902344 -0.3333418170611063 -0.5 0.3702669640382131
-25.399999618530273 -301.625 43.99409103393555 0.23514784375826517 -0.5 -0.4389732976754506
-31.483762741088867 -301.625 47.69586181640625 -0.2618712286154429 -0.5 0.4238370656967163
-16.61505126953125 -301.625 48.00604248046875 0.14782210687796274 -0.5 -0.47554252545038855
-22.461380004882812 -301.625 52.5510139465332 -0.18198376397291818 -0.5 0.46378475427627563
-7.229593753814697 -301.625 50.282928466796875 0.05515382935603459 -0.5 -0.49492437640825904
-12.717070579528809 -301.625 55.71712875366211 -0.09624728560447693 -0.5 0.4888260066509247
2.417161464691162 -301.625 50.742462158203125 -0.03386398404836655 -0.5714285714285714 -0.425501457282475
-2.5640251636505127 -301.625 57.09245300292969 -0.008900755643844604 -0.4 0.5977871656417847
7.671431064605713 -301.625 56.63277816772461 0.08165114372968674 -0.5 0.49147480726242065
11.976553916931152 -301.625 49.36802673339844 -0.1327418213089307 -0.5 -0.4799705147743225
17.660322189331055 -301.625 54.35287857055664 0.1680951838692029 -0.5 0.4689972400665283
21.10308265686035 -301.625 46.20930480957031 -0.22117799520492554 -0.5 -0.4461752672990163
27.081594467163086 -301.625 50.32603454589844 0.24913650751113892 -0.5 0.4314457178115845
29.46689224243164 -301.625 41.38045883178711 -0.30162020524342853 -0.5 -0.3962541123231252
35.632442474365234 -301.625 44.68166732788086 0.3221703767776489 -0.5 0.380027174949646
36.765689849853516 -301.625 35.05601501464844 -0.371161142985026 -0.5 -0.33201127250989276
43.03803253173828 -301.625 37.601200103759766 0.3848494390646616 -0.5 0.3163942495981852
42.735679626464844 -301.625 27.464553833007812 -0.427287350098292 -0.5 -0.2557686368624369
49.06034851074219 -301.625 29.312192916870117 0.4351591169834137 -0.5 0.24259214599927265
47.16109085083008 -301.625 18.88045310974121 -0.46797026197115577 -0.5 -0.17028185228506723
53.505821228027344 -301.625 20.081071853637695 0.47148242592811584 -0.5 0.16099294026692706
49.88197708129883 -301.625 9.61396312713623 -0.4917394717534383 -0.5 -0.07864077885945638
56.2315788269043 -301.625 10.204526901245117 0.49265190958976746 -0.5 0.07421918958425522
50.79999923706055 -301.625 3.1106027143987507E-15 -0.4977359473705292 -0.5 0.015842693547407784
57.14999771118164 -301.625 3.4994281066381538E-15 0.49798715114593506 -0.5 -0.014939850817124048
49.88197708129883 -301.625 -9.61396312713623 -0.4857429961363474 -0.5 0.10975347707668939
56.2315788269043 -301.625 -10.204526901245117 0.48731666803359985 -0.5 -0.10361882671713829
47.16109085083008 -301.625 -18.88045310974121 -0.456194003423055 -0.5 0.19969752927621204
53.505821228027344 -301.625 -20.081071853637695 0.46098342537879944 -0.5 -0.1889674166838328
42.735679626464844 -301.625 -27.464553833007812 -0.4101569553216298 -0.5 0.28242406745751697
49.06034851074219 -301.625 -29.312192916870117 0.41983380913734436 -0.5 -0.26824239889780677
36.765689849853516 -301.625 -35.05601501464844 -0.3492957254250844 -0.5 0.3549430469671885
43.03803253173828 -301.625 -37.601200103759766 0.3651903768380483 -0.5 -0.3388958474000295
29.46689224243164 -301.625 -41.38045883178711 -0.27581010262171424 -0.5 0.4146334032217661
35.632442474365234 -301.625 -44.68166732788086 0.2988094389438629 -0.5 -0.3986569046974182
21.10308265686035 -301.625 -46.20930480957031 -0.19235599040985107 -0.5 0.4593378404776255
27.081594467163086 -301.625 -50.32603454589844 0.22282451391220093 -0.5 -0.4456048011779785
11.976553916931152 -301.625 -49.36802673339844 -0.10194965700308481 -0.5 0.4874406158924103
17.660322189331055 -301.625 -54.35287857055664 0.13967784742514291 -0.5 -0.4782305955886841
7.671431064605713 -301.625 -56.63277816772461 0.062450131773948675 -0.4 -0.5945827960968018
3 0 1 2
3 1 3 2
3 2 3 4
3 3 5 4
3 4 5 6
3 5 7 6
3 6 7 8
3 7 9 8
3 8 9 10
3 9 11 10
3 10 11 12
3 11 13 12
3 12 13 14
3 13 15 14
3 14 15 16
3 15 17 16
3 16 17 18
3 17 19 18
3 18 19 20
3 19 21 20
3 20 21 22
3 21 23 22
3 22 23 24
3 23 25 24
3 24 25 26
3 25 27 26
3 26 27 28
3 27 29 28
3 28 29 30
3 29 31 30
3 30 31 32
3 31 33 32
3 33 34 32
3 32 34 35
3 34 36 35
3 35 36 37
3 36 38 37
3 37 38 39
3 38 40 39
3 39 40 41
3 40 42 41
3 41 42 43
3 42 44 43
3 43 44 45
3 44 46 45
3 45 46 47
3 46 48 47
3 47 48 49
3 48 50 49
3 49 50 51
3 50 52 51
3 51 52 53
3 52 54 53
3 53 54 55
3 54 56 55
3 55 56 57
3 56 58 57
3 57 58 59
3 58 60 59
3 59 60 61
3 60 62 61
3 61 62 63
3 62 64 63
3 63 64 65
3 64 66 65
3 65 66 67
3 66 68 67
3 67 68 0
3 68 69 0
3 0 69 1
3 70 71 72
3 71 73 72
3 72 73 74
3 73 75 74
3 74 75 76
3 75 77 76
3 76 77 78
3 77 79 78
3 78 79 80
3 79 81 80
3 80 81 82
3 81 83 82
3 82 83 84
3 83 85 84
3 84 85 86
3 85 87 86
3 86 87 88
3 87 89 88
3 88 89 90
3 89 91 90
3 90 91 92
3 91 93 92
3 92 93 94
3 93 95 94
3 94 95 96
3 95 97 96
3 96 97 98
3 97 99 98
3 98 99 100
3 99 101 100
3 100 101 102
3 101 103 102
3 102 103 104
3 103 105 104
3 104 105 106
3 105 107 106
3 107 108 106
3 106 108 109
3 108 110 109
3 109 110 111
3 110 112 111
3 111 112 113
3 112 114 113
3 113 114 115
3 114 116 115
3 115 116 117
3 116 118 117
3 117 118 119
3 118 120 119
3 119 120 121
3 120 122 121
3 121 122 123
3 122 124 123
3 123 124 125
3 124 126 125
3 125 126 127
3 126 128 127
3 127 128 129
3 128 130 129
3 129 130 131
3 130 132 131
3 131 132 133
3 132 134 133
3 133 134 135
3 134 136 135
3 135 136 137
3 136 138 137
3 137 138 70
3 138 139 70
3 70 139 71
3 123 16 121
3 16 18 121
3 121 18 119
3 18 20 119
3 119 20 117
3 20 22 117
3 117 22 115
3 22 24 115
3 115 24 113
3 24 26 113
3 113 26 111
3 26 28 111
3 111 28 109
3 28 30 109
3 109 30 106
3 30 32 106
3 106 32 104
3 32 35 104
3 104 35 102
3 35 37 102
3 102 37 100
3 37 39 100
3 100 39 98
3 39 41 98
3 98 41 96
3 41 43 96
3 96 43 94
3 43 45 94
3 94 45 92
3 45 47 92
3 92 47 90
3 47 49 90
3 90 49 88
3 49 51 88
3 88 51 86
3 51 53 86
3 86 53 84
3 53 55 84
3 84 55 82
3 55 57 82
3 82 57 80
3 57 59 80
3 80 59 78
3 59 61 78
3 78 61 76
3 61 63 76
3 76 63 74
3 63 65 74
3 74 65 72
3 65 67 72
3 72 67 70
3 67 0 70
3 70 0 137
3 0 2 137
3 137 2 135
3 2 4 135
3 135 4 133
3 4 6 133
3 133 6 131
3 6 8 131
3 131 8 129
3 8 10 129
3 129 10 127
3 10 12 127
3 127 12 125
3 12 14 125
3 125 14 123
3 14 16 123
3 91 89 52
3 52 89 54
3 89 87 54
3 87 85 54
3 54 85 56
3 85 83 56
3 56 83 58
3 83 81 58
3 58 81 60
3 81 79 60
3 60 79 62
3 79 77 62
3 62 77 64
3 77 75 64
3 64 75 66
3 75 73 66
3 66 73 68
3 73 71 68
3 68 71 69
3 71 139 69
3 69 139 1
3 139 138 1
3 1 138 3
3 138 136 3
3 3 136 5
3 136 134 5
3 5 134 7
3 134 132 7
3 7 132 9
3 132 130 9
3 9 130 11
3 130 128 11
3 11 128 13
3 128 126 13
3 13 126 15
3 126 124 15
3 15 124 17
3 124 122 17
3 17 122 19
3 122 120 19
3 19 120 21
3 120 118 21
3 21 118 23
3 118 116 23
3 23 116 25
3 116 114 25
3 25 114 27
3 114 112 27
3 27 112 29
3 112 110 29
3 29 110 31
3 110 108 31
3 31 108 33
3 108 107 33
3 33 107 34
3 107 105 34
3 34 105 36
3 105 103 36
3 36 103 38
3 103 101 38
3 38 101 40
3 101 99 40
3 40 99 42
3 99 97 42
3 42 97 44
3 97 95 44
3 44 95 46
3 95 93 46
3 46 93 48
3 93 91 48
3 48 91 50
3 91 52 50